<svg width="235" height="54" viewBox="0 0 235 54" fill="none" xmlns="http://www.w3.org/2000/svg">
<path d="M0 23.9073V1.47939C0 1.10656 0.302366 0.807134 0.672251 0.807134H2.43067C2.80349 0.807134 3.10292 1.1095 3.10292 1.47939V23.9073C3.10292 24.2801 2.80055 24.5796 2.43067 24.5796H0.672251C0.299431 24.5796 0 24.2772 0 23.9073ZM14.0996 24.2361L7.97013 13.2746C7.95545 13.2482 7.94077 13.2188 7.92903 13.1895L7.71767 12.6434L7.45053 13.1748C7.43292 13.2129 7.40943 13.2482 7.38301 13.2805L4.54723 17.0145V15.0213C4.5443 14.3842 4.64704 13.7208 4.85547 13.0339C5.0639 12.3469 5.38387 11.7041 5.82128 11.1052L13.2395 1.07721C13.3657 0.904009 13.5683 0.804199 13.7826 0.804199H15.6085C16.1663 0.804199 16.4833 1.44416 16.1428 1.88743L9.86359 10.0542C9.69626 10.2744 9.67865 10.5738 9.81955 10.8116L17.4462 23.5609C17.7134 24.01 17.3904 24.5796 16.8679 24.5796H14.6897C14.446 24.5796 14.22 24.4475 14.1026 24.2332L14.0996 24.2361Z" fill="#0029FF"/>
<path d="M21.6177 23.9073V1.47938C21.6177 1.10656 21.92 0.807129 22.2899 0.807129H24.0836C24.4564 0.807129 24.7558 1.1095 24.7558 1.47938V21.5207C24.7558 21.8935 25.0582 22.1929 25.4281 22.1929H34.0147C34.3904 22.1929 34.6928 22.5011 34.6869 22.8769L34.6723 23.9161C34.6664 24.286 34.367 24.5795 34 24.5795H22.2899C21.9171 24.5795 21.6177 24.2772 21.6177 23.9073Z" fill="#0029FF"/>
<path d="M38.6235 23.9073V1.47938C38.6235 1.10656 38.9259 0.807129 39.2958 0.807129H40.9573C41.3302 0.807129 41.6296 1.1095 41.6296 1.47938V23.9073C41.6296 24.2801 41.3272 24.5795 40.9573 24.5795H39.2958C38.923 24.5795 38.6235 24.2772 38.6235 23.9073Z" fill="#0029FF"/>
<path d="M47.4536 23.9073V1.47939C47.4536 1.10656 47.756 0.807134 48.1259 0.807134H49.8843C50.2571 0.807134 50.5565 1.1095 50.5565 1.47939V23.9073C50.5565 24.2801 50.2542 24.5796 49.8843 24.5796H48.1259C47.753 24.5796 47.4536 24.2772 47.4536 23.9073ZM61.5533 24.2361L55.4237 13.2746C55.4091 13.2482 55.3944 13.2188 55.3826 13.1895L55.1713 12.6434L54.9041 13.1748C54.8865 13.2129 54.863 13.2482 54.8366 13.2805L52.0008 17.0145V15.0213C51.9979 14.3842 52.1007 13.7208 52.3091 13.0339C52.5175 12.3469 52.8375 11.7041 53.2749 11.1052L60.6931 1.07721C60.8194 0.904009 61.0219 0.804199 61.2362 0.804199H63.0622C63.6199 0.804199 63.937 1.44416 63.5964 1.88743L57.3172 10.0542C57.1499 10.2744 57.1323 10.5738 57.2732 10.8116L64.8998 23.5609C65.1699 24.01 64.8441 24.5796 64.3215 24.5796H62.1433C61.8997 24.5796 61.6736 24.4475 61.5562 24.2332L61.5533 24.2361Z" fill="#0029FF"/>
<path d="M99.9655 31.4783L99.1876 30.4861C99.0378 30.2953 99.0701 30.0164 99.258 29.8637C99.9449 29.2942 100.582 28.757 101.169 28.255C101.85 27.6709 102.437 27.0514 102.927 26.3909C103.418 25.7304 103.799 24.9613 104.072 24.0777C104.345 23.1941 104.48 22.1108 104.48 20.8221V1.67913C104.48 1.43254 104.68 1.22998 104.93 1.22998H107.172C107.419 1.22998 107.622 1.4296 107.622 1.67913V20.8221C107.622 22.2518 107.448 23.4876 107.108 24.5356C106.764 25.5807 106.271 26.5084 105.628 27.3156C104.985 28.1229 104.207 28.8803 103.297 29.5878C102.481 30.2219 101.577 30.8824 100.582 31.5723C100.388 31.7073 100.118 31.6662 99.9714 31.4812L99.9655 31.4783Z" fill="#0029FF"/>
<path d="M111.476 25.0053L120.045 1.22998H123.086L131.655 25.0053H128.321L121.68 5.84179L121.451 4.8936L121.222 5.84179L117.559 16.3395L117.198 17.0264L117.591 16.9618H122.006C122.529 16.9618 122.969 17.0704 123.321 17.2877C123.676 17.5049 123.97 17.7955 124.205 18.1537C124.44 18.5118 124.633 18.8993 124.786 19.3162H116.546L114.585 25.0053H111.479H111.476Z" fill="#0029FF"/>
<path d="M144.704 25.3986C144.213 25.3986 143.738 25.3839 143.28 25.3575C142.822 25.3311 142.34 25.2753 141.833 25.1931C141.325 25.1109 140.755 24.9935 140.124 24.8408C140.333 24.4592 140.579 24.1187 140.867 23.8192C141.155 23.5198 141.495 23.2938 141.88 23.1411C142.267 22.9885 142.705 22.9327 143.195 22.9767C143.544 23.009 143.811 23.0296 143.996 23.0325C144.099 23.0354 144.216 23.0384 144.343 23.0384C145.646 23.053 146.946 22.7154 148.024 21.9845C148.752 21.4913 149.398 20.8631 149.964 20.0969C150.639 19.181 151.168 18.1212 151.549 16.9177C151.931 15.7141 152.122 14.4283 152.122 13.0662C152.122 10.9613 151.764 9.17357 151.05 7.70283C150.337 6.2321 149.266 5.11071 147.836 4.34158C146.406 3.57246 144.621 3.1879 142.473 3.1879C141.818 3.1879 141.175 3.20844 140.544 3.25248C140.068 3.28477 139.622 3.32587 139.205 3.3699C138.979 3.39338 138.809 3.58714 138.809 3.81611V24.5531C138.809 24.7997 138.609 25.0023 138.36 25.0023H136.149C135.903 25.0023 135.7 24.8027 135.7 24.5531V1.94907C135.7 1.74065 135.841 1.55571 136.047 1.51167C136.992 1.30031 138.025 1.13298 139.152 1.01262C140.418 0.877583 141.524 0.807129 142.473 0.807129C145.241 0.807129 147.592 1.29737 149.53 2.27786C151.464 3.25835 152.935 4.6645 153.945 6.49631C154.955 8.32811 155.457 10.5181 155.457 13.0691C155.457 14.8451 155.172 16.4861 154.605 17.9921C154.039 19.4951 153.258 20.8014 152.26 21.9082C151.262 23.0149 150.117 23.8721 148.825 24.4827C147.534 25.0933 146.157 25.3986 144.698 25.3986H144.704Z" fill="#0029FF"/>
<path d="M159.03 24.5591V1.67913C159.03 1.43254 159.229 1.22998 159.479 1.22998H161.593C161.839 1.22998 162.042 1.4296 162.042 1.67913V24.5591C162.042 24.8057 161.842 25.0083 161.593 25.0083H159.479C159.232 25.0083 159.03 24.8087 159.03 24.5591Z" fill="#0029FF"/>
<path d="M171.923 24.6736L165.785 1.79361C165.708 1.50886 165.923 1.22998 166.216 1.22998H168.421C168.626 1.22998 168.805 1.37089 168.855 1.57051L173.605 20.508C173.605 20.508 173.611 20.5315 173.614 20.5462L173.872 22.1314L174.233 20.5286L179.215 1.89342C179.268 1.69674 179.444 1.5617 179.646 1.5617H182.291C182.497 1.5617 182.673 1.69968 182.726 1.89636L187.575 20.552C187.575 20.552 187.578 20.5667 187.581 20.5755L187.907 22.1666L188.198 20.6401C188.198 20.6401 188.201 20.6254 188.204 20.6166L192.924 1.57344C192.974 1.37382 193.153 1.23292 193.359 1.23292H195.499C195.792 1.23292 196.007 1.5118 195.93 1.79655L189.792 24.6766C189.739 24.8732 189.563 25.0083 189.36 25.0083H186.387C186.184 25.0083 186.005 24.8703 185.952 24.6736L181.17 6.51111C181.17 6.51111 181.164 6.49056 181.164 6.48175L180.906 5.12257L180.647 6.41717C180.647 6.41717 180.645 6.43478 180.642 6.44359L175.892 24.6736C175.839 24.8703 175.663 25.0083 175.457 25.0083H172.354C172.152 25.0083 171.973 24.8732 171.923 24.6766V24.6736Z" fill="#0029FF"/>
<path d="M199.646 24.5591V1.67913C199.646 1.43254 199.846 1.22998 200.096 1.22998H212.739C212.986 1.22998 213.188 1.4296 213.188 1.67913V3.13811C213.188 3.3847 212.989 3.58726 212.739 3.58726H203.201C202.955 3.58726 202.752 3.78688 202.752 4.03641V22.2077C202.752 22.4543 202.952 22.6569 203.201 22.6569H213.229C213.476 22.6569 213.679 22.8565 213.679 23.106V24.565C213.679 24.8116 213.479 25.0141 213.229 25.0141H200.096C199.849 25.0141 199.646 24.8145 199.646 24.565V24.5591ZM203.997 13.6916C204.15 13.2776 204.346 12.896 204.584 12.5467C204.825 12.1974 205.124 11.9185 205.482 11.713C205.844 11.5046 206.284 11.4018 206.806 11.4018H211.624C211.87 11.4018 212.073 11.6014 212.073 11.851V13.2454C212.073 13.4919 211.873 13.6945 211.624 13.6945H203.994L203.997 13.6916Z" fill="#0029FF"/>
<path d="M227.446 25.3986C226.824 25.3986 226.149 25.3575 225.418 25.2753C224.687 25.1931 223.838 25.0375 222.867 24.8085C223.084 24.4269 223.342 24.0746 223.636 23.7547C223.929 23.4347 224.27 23.191 224.658 23.0266C225.045 22.8622 225.482 22.8241 225.973 22.9121C226.234 22.9444 226.472 22.9679 226.683 22.9855C226.733 22.9885 226.783 22.9914 226.839 22.9943C228.433 23.0795 230.015 22.3984 230.904 21.0745C230.975 20.9688 231.045 20.8572 231.11 20.7427C231.503 20.0499 231.697 19.2779 231.697 18.4295C231.697 17.3404 231.412 16.445 230.84 15.7464C230.267 15.0477 229.498 14.531 228.535 14.1934C227.57 13.8558 226.501 13.6856 225.321 13.6856H222.01C221.763 13.6856 221.56 13.8852 221.56 14.1347V24.5531C221.56 24.7997 221.361 25.0023 221.111 25.0023H218.901C218.654 25.0023 218.452 24.8027 218.452 24.5531V1.89624C218.452 1.68194 218.607 1.49406 218.819 1.45296C219.506 1.32086 220.169 1.21225 220.806 1.12418C221.558 1.02143 222.303 0.942172 223.037 0.886395C223.774 0.830619 224.534 0.804199 225.318 0.804199C227.17 0.804199 228.712 1.08602 229.939 1.64671C231.166 2.20741 232.082 2.96479 232.686 3.91886C233.291 4.87293 233.593 5.93855 233.593 7.11572C233.593 7.89952 233.385 8.75965 232.971 9.69023C232.56 10.612 231.961 11.3283 231.169 11.8391C231.148 11.8508 231.13 11.8626 231.11 11.8714L230.191 12.3147L231.057 12.5319C231.089 12.5407 231.122 12.5524 231.154 12.5671C231.952 12.9546 232.636 13.4243 233.209 13.9762C233.793 14.5369 234.236 15.1798 234.542 15.9049C234.847 16.63 235 17.4285 235 18.3003C235 19.1722 234.826 19.9795 234.486 20.8191C234.142 21.6586 233.646 22.4248 232.998 23.1176C232.349 23.8104 231.559 24.3623 230.626 24.7762C229.692 25.1902 228.632 25.3986 227.446 25.3986ZM221.56 10.9848C221.56 11.2314 221.76 11.434 222.01 11.434H225.321C226.41 11.434 227.329 11.2432 228.077 10.8615C228.823 10.4799 229.39 9.96325 229.777 9.30861C230.165 8.65397 230.358 7.92301 230.358 7.11866C230.358 6.37595 230.168 5.71251 229.786 5.12245C229.404 4.5324 228.841 4.07151 228.092 3.73392C227.347 3.39633 226.422 3.22606 225.321 3.22606C224.734 3.22606 224.106 3.24368 223.439 3.27597C222.923 3.30239 222.429 3.33761 221.96 3.38165C221.731 3.4022 221.558 3.59888 221.558 3.82786V10.9878L221.56 10.9848Z" fill="#0029FF"/>
<path d="M83.2357 24.5823C85.8865 24.5823 88.0354 22.4334 88.0354 19.7826C88.0354 17.1318 85.8865 14.9829 83.2357 14.9829C80.5849 14.9829 78.436 17.1318 78.436 19.7826C78.436 22.4334 80.5849 24.5823 83.2357 24.5823Z" fill="#FBA919"/>
<path d="M94.3149 15.5732C93.9333 15.5732 93.5487 15.4264 93.2581 15.1358L83.1597 5.03732L73.2168 14.9802C72.6326 15.5644 71.6844 15.5644 71.1002 14.9802C70.5161 14.396 70.5161 13.4478 71.1002 12.8636L83.1597 0.804199L95.3747 13.0192C95.9588 13.6034 95.9588 14.5516 95.3747 15.1358C95.0811 15.4264 94.6995 15.5732 94.3178 15.5732H94.3149Z" fill="#FBA919"/>
<path d="M0 51.5103H88.9968" stroke="#0029FF" stroke-width="3"/>
</svg>
