<svg width="22" height="22" viewBox="0 0 22 22" fill="none" xmlns="http://www.w3.org/2000/svg">
<g clip-path="url(#clip0_75_959)">
<path d="M14.3996 13.2847C13.913 15.5858 12.7963 17.7064 11.1743 19.4097C8.92752 17.0505 7.67432 13.9175 7.67432 10.6597C7.67432 7.40182 8.92752 4.2688 11.1743 1.90967C9.5572 1.91009 7.97183 2.35864 6.59421 3.20553C5.21659 4.05241 4.1006 5.2645 3.37014 6.70724C2.63968 8.14998 2.32332 9.76692 2.45618 11.3786C2.58904 12.9902 3.16593 14.5335 4.1228 15.8372C5.07967 17.1408 6.37908 18.1538 7.8768 18.7636C9.37451 19.3735 11.0119 19.5563 12.6073 19.2919C14.2026 19.0275 15.6935 18.3262 16.9144 17.2657C18.1353 16.2053 19.0384 14.8273 19.5236 13.2847M2.42432 10.6597H9.86182M18.1743 5.40967V3.65967C18.1743 3.19554 17.9899 2.75042 17.6618 2.42223C17.3336 2.09404 16.8884 1.90967 16.4243 1.90967C15.9602 1.90967 15.5151 2.09404 15.1869 2.42223C14.8587 2.75042 14.6743 3.19554 14.6743 3.65967V5.40967" stroke="#1C1C1C" stroke-width="2" stroke-linecap="round" stroke-linejoin="round"/>
<path d="M19.0493 5.40967H13.7993C13.3161 5.40967 12.9243 5.80142 12.9243 6.28467V8.90967C12.9243 9.39292 13.3161 9.78467 13.7993 9.78467H19.0493C19.5326 9.78467 19.9243 9.39292 19.9243 8.90967V6.28467C19.9243 5.80142 19.5326 5.40967 19.0493 5.40967Z" stroke="#1C1C1C" stroke-width="2" stroke-linecap="round" stroke-linejoin="round"/>
</g>
<defs>
<clipPath id="clip0_75_959">
<rect width="21" height="21" fill="white" transform="translate(0.674316 0.159668)"/>
</clipPath>
</defs>
</svg>
