<svg width="22" height="22" viewBox="0 0 22 22" fill="none" xmlns="http://www.w3.org/2000/svg">
<g clip-path="url(#clip0_101_2)">
<path d="M14.4179 18.7912C14.2538 18.9552 14.0313 19.0473 13.7993 19.0473C13.5673 19.0473 13.3448 18.9552 13.1807 18.7912L11.7929 17.4034C11.6289 17.2393 11.5367 17.0168 11.5367 16.7848C11.5367 16.5528 11.6289 16.3302 11.7929 16.1662L16.6807 11.2784C16.8448 11.1144 17.0673 11.0222 17.2993 11.0222C17.5313 11.0222 17.7538 11.1144 17.9179 11.2784L19.3057 12.6662C19.4697 12.8302 19.5619 13.0528 19.5619 13.2848C19.5619 13.5168 19.4697 13.7393 19.3057 13.9034L14.4179 18.7912Z" stroke="#1C1C1C" stroke-width="2" stroke-linecap="round" stroke-linejoin="round"/>
<path d="M16.4243 11.5347L15.2212 5.51992C15.1885 5.35628 15.1096 5.20541 14.994 5.0851C14.8783 4.9648 14.7307 4.88007 14.5684 4.84092L3.50495 1.93417C3.3592 1.89893 3.20683 1.90174 3.06248 1.94233C2.91813 1.98292 2.78663 2.05992 2.6806 2.16595C2.57457 2.27198 2.49756 2.40348 2.45698 2.54783C2.41639 2.69219 2.41358 2.84455 2.44882 2.9903L5.35557 14.0538C5.39472 14.216 5.47944 14.3637 5.59975 14.4793C5.72006 14.595 5.87093 14.6738 6.03457 14.7065L12.0493 15.9097M2.68682 2.17217L9.06207 8.54742" stroke="#1C1C1C" stroke-width="2" stroke-linecap="round" stroke-linejoin="round"/>
<path d="M10.2993 11.5347C11.2658 11.5347 12.0493 10.7512 12.0493 9.78467C12.0493 8.81817 11.2658 8.03467 10.2993 8.03467C9.33282 8.03467 8.54932 8.81817 8.54932 9.78467C8.54932 10.7512 9.33282 11.5347 10.2993 11.5347Z" stroke="#1C1C1C" stroke-width="2" stroke-linecap="round" stroke-linejoin="round"/>
</g>
<defs>
<clipPath id="clip0_101_2">
<rect width="21" height="21" fill="white" transform="translate(0.674316 0.159668)"/>
</clipPath>
</defs>
</svg>
