<svg width="38" height="39" viewBox="0 0 38 39" fill="none" xmlns="http://www.w3.org/2000/svg">
<rect y="0.593964" width="38" height="38" rx="19" fill="#98A9FF"/>
<path d="M7.99976 19.5924C7.99976 22.045 9.98797 24.0332 12.4406 24.0332C14.8931 24.0332 16.8813 22.045 16.8813 19.5924C16.8813 17.1398 14.8931 15.1516 12.4406 15.1516C9.98797 15.1516 7.99976 17.1398 7.99976 19.5924Z" fill="white"/>
<path d="M16.3354 29.8431C16.3354 29.49 16.4712 29.1342 16.7401 28.8653L26.0834 19.522L16.884 10.3226C16.3435 9.78213 16.3435 8.90483 16.884 8.36433C17.4245 7.82383 18.3018 7.82383 18.8423 8.36433L30 19.522L18.6984 30.8236C18.1579 31.3641 17.2806 31.3641 16.7401 30.8236C16.4712 30.552 16.3354 30.1989 16.3354 29.8458L16.3354 29.8431Z" fill="white"/>
</svg>
