<svg width="102" height="55" viewBox="0 0 102 55" fill="none" xmlns="http://www.w3.org/2000/svg">
<path d="M101.233 27.7134C101.233 36.5499 94.07 43.7134 85.2334 43.7134L41.7545 43.7134L41.7545 11.7134L85.2334 11.7134C94.0699 11.7134 101.233 18.8768 101.233 27.7134Z" fill="#98A9FF"/>
<path d="M71.3022 33.4294C70.6062 33.4294 69.9522 33.3094 69.3402 33.0694C68.7282 32.8174 68.1942 32.4634 67.7382 32.0074C67.2942 31.5394 66.9702 30.9934 66.7662 30.3694L68.2062 29.7574C68.4582 30.4174 68.8662 30.9334 69.4302 31.3054C70.0062 31.6654 70.6302 31.8454 71.3022 31.8454C71.8542 31.8454 72.3402 31.7254 72.7602 31.4854C73.1922 31.2334 73.5282 30.8914 73.7682 30.4594C74.0082 30.0154 74.1282 29.5234 74.1282 28.9834C74.1282 28.4194 74.0022 27.9214 73.7502 27.4894C73.5102 27.0574 73.1802 26.7214 72.7602 26.4814C72.3402 26.2294 71.8602 26.1034 71.3202 26.1034C70.7682 26.1034 70.2642 26.2294 69.8082 26.4814C69.3522 26.7334 69.0222 27.0514 68.8182 27.4354L67.3962 27.1294L68.4222 19.8034H75.3702V21.3334H69.0882L69.7722 20.6494L68.9802 26.3374L68.3682 25.9774C68.7642 25.4734 69.2262 25.1134 69.7542 24.8974C70.2942 24.6694 70.8762 24.5554 71.5002 24.5554C72.3762 24.5554 73.1442 24.7534 73.8042 25.1494C74.4642 25.5454 74.9802 26.0734 75.3522 26.7334C75.7242 27.3934 75.9102 28.1434 75.9102 28.9834C75.9102 29.8234 75.7062 30.5794 75.2982 31.2514C74.9022 31.9234 74.3562 32.4574 73.6602 32.8534C72.9762 33.2374 72.1902 33.4294 71.3022 33.4294Z" fill="white"/>
<circle cx="27.1501" cy="27.7134" r="27" fill="#0029FF"/>
<path d="M28.9132 15.6313H20.0332C19.3966 15.6313 18.7862 15.8842 18.3361 16.3343C17.886 16.7844 17.6332 17.3948 17.6332 18.0313V37.2313C17.6332 37.8679 17.886 38.4783 18.3361 38.9284C18.7862 39.3785 19.3966 39.6313 20.0332 39.6313H34.4332C35.0697 39.6313 35.6801 39.3785 36.1302 38.9284C36.5803 38.4783 36.8332 37.8679 36.8332 37.2313V28.3513M15.2332 20.4313H20.0332M15.2332 25.2313H20.0332M15.2332 30.0313H20.0332M15.2332 34.8313H20.0332" stroke="white" stroke-width="2" stroke-linecap="round" stroke-linejoin="round"/>
<path d="M34.9132 16.3512C35.4134 16.0284 36.0091 15.8867 36.6011 15.9497C37.1931 16.0128 37.7457 16.2768 38.1666 16.6978C38.5876 17.1187 38.8516 17.6713 38.9147 18.2633C38.9777 18.8553 38.836 19.451 38.5132 19.9512L32.0332 26.4312L27.2332 27.6312L28.4332 22.8312L34.9132 16.3512Z" stroke="white" stroke-width="2" stroke-linecap="round" stroke-linejoin="round"/>
</svg>
