<svg width="102" height="55" viewBox="0 0 102 55" fill="none" xmlns="http://www.w3.org/2000/svg">
<path d="M101.907 27.2427C101.907 36.0792 94.744 43.2427 85.9075 43.2427L42.4286 43.2427L42.4286 11.2427L85.9075 11.2427C94.744 11.2427 101.907 18.4061 101.907 27.2427Z" fill="#98A9FF"/>
<path d="M67.8647 32.7427V31.5187L71.5727 27.5047C72.3047 26.7247 72.8867 26.0827 73.3187 25.5787C73.7627 25.0747 74.0867 24.6247 74.2907 24.2287C74.4947 23.8327 74.5967 23.4127 74.5967 22.9687C74.5967 22.2367 74.3807 21.6727 73.9487 21.2767C73.5167 20.8807 72.9467 20.6827 72.2387 20.6827C71.5187 20.6827 70.9067 20.8927 70.4027 21.3127C69.8987 21.7207 69.5507 22.3027 69.3587 23.0587L67.7567 22.6447C67.9127 21.9247 68.2007 21.3007 68.6207 20.7727C69.0407 20.2447 69.5627 19.8367 70.1867 19.5487C70.8107 19.2607 71.4947 19.1167 72.2387 19.1167C73.0547 19.1167 73.7687 19.2787 74.3807 19.6027C75.0047 19.9147 75.4907 20.3527 75.8387 20.9167C76.1987 21.4807 76.3787 22.1347 76.3787 22.8787C76.3787 23.3707 76.2767 23.8507 76.0727 24.3187C75.8687 24.7867 75.5687 25.2847 75.1727 25.8127C74.7767 26.3287 74.2607 26.9287 73.6247 27.6127L70.3127 31.2127H76.6667V32.7427H67.8647Z" fill="white"/>
<circle cx="27.8242" cy="27.2427" r="27" fill="#0029FF"/>
<path d="M36.4908 20.576V16.576C36.4908 16.2224 36.3504 15.8832 36.1003 15.6332C35.8503 15.3832 35.5111 15.2427 35.1575 15.2427H17.8244C17.1171 15.2427 16.4388 15.5236 15.9388 16.0237C15.4387 16.5238 15.1577 17.2021 15.1577 17.9093C15.1577 18.6166 15.4387 19.2948 15.9388 19.7949C16.4388 20.295 17.1171 20.576 17.8244 20.576H37.8241C38.1778 20.576 38.5169 20.7164 38.7669 20.9665C39.017 21.2165 39.1575 21.5557 39.1575 21.9093V27.2425M39.1575 27.2425H35.1575C34.4503 27.2425 33.772 27.5235 33.2719 28.0236C32.7718 28.5237 32.4909 29.202 32.4909 29.9092C32.4909 30.6164 32.7718 31.2947 33.2719 31.7948C33.772 32.2949 34.4503 32.5758 35.1575 32.5758H39.1575C39.5111 32.5758 39.8502 32.4354 40.1003 32.1853C40.3503 31.9353 40.4908 31.5961 40.4908 31.2425V28.5759C40.4908 28.2223 40.3503 27.8831 40.1003 27.6331C39.8502 27.383 39.5111 27.2425 39.1575 27.2425Z" stroke="white" stroke-width="2" stroke-linecap="round" stroke-linejoin="round"/>
<path d="M15.1577 17.9097V36.5761C15.1577 37.2834 15.4387 37.9616 15.9388 38.4617C16.4388 38.9618 17.1171 39.2428 17.8244 39.2428H37.8241C38.1778 39.2428 38.5169 39.1023 38.7669 38.8523C39.017 38.6022 39.1575 38.2631 39.1575 37.9095V32.5762" stroke="white" stroke-width="2" stroke-linecap="round" stroke-linejoin="round"/>
</svg>
