<svg width="102" height="55" viewBox="0 0 102 55" fill="none" xmlns="http://www.w3.org/2000/svg">
<path d="M101.233 27.7134C101.233 36.5499 94.07 43.7134 85.2334 43.7134L41.7545 43.7134L41.7545 11.7134L85.2334 11.7134C94.0699 11.7134 101.233 18.8768 101.233 27.7134Z" fill="#98A9FF"/>
<path d="M71.6366 33.4294C70.7726 33.4294 70.0046 33.2374 69.3326 32.8534C68.6726 32.4694 68.1506 31.9474 67.7666 31.2874C67.3826 30.6154 67.1906 29.8534 67.1906 29.0014C67.1906 28.5334 67.2446 28.0714 67.3526 27.6154C67.4606 27.1594 67.6346 26.6974 67.8746 26.2294C68.1146 25.7614 68.4206 25.2754 68.7926 24.7714L72.5726 19.8034H74.6966L70.0706 25.8154L69.7466 25.7794C69.9266 25.5394 70.1246 25.3534 70.3406 25.2214C70.5686 25.0894 70.8086 24.9934 71.0606 24.9334C71.3246 24.8734 71.6006 24.8434 71.8886 24.8434C72.6806 24.8434 73.3886 25.0294 74.0126 25.4014C74.6486 25.7614 75.1466 26.2594 75.5066 26.8954C75.8786 27.5314 76.0646 28.2634 76.0646 29.0914C76.0646 29.9194 75.8726 30.6634 75.4886 31.3234C75.1046 31.9714 74.5766 32.4874 73.9046 32.8714C73.2446 33.2434 72.4886 33.4294 71.6366 33.4294ZM71.6366 31.8454C72.1406 31.8454 72.5906 31.7314 72.9866 31.5034C73.3826 31.2634 73.6946 30.9334 73.9226 30.5134C74.1626 30.0934 74.2826 29.6254 74.2826 29.1094C74.2826 28.5694 74.1686 28.1014 73.9406 27.7054C73.7126 27.2974 73.4006 26.9734 73.0046 26.7334C72.6086 26.4934 72.1526 26.3734 71.6366 26.3734C71.1326 26.3734 70.6766 26.4934 70.2686 26.7334C69.8606 26.9734 69.5426 27.2974 69.3146 27.7054C69.0866 28.1014 68.9726 28.5694 68.9726 29.1094C68.9726 29.6254 69.0866 30.0934 69.3146 30.5134C69.5546 30.9334 69.8726 31.2634 70.2686 31.5034C70.6766 31.7314 71.1326 31.8454 71.6366 31.8454Z" fill="white"/>
<circle cx="27.1501" cy="27.7134" r="27" fill="#FBA919"/>
<path d="M18.9351 27.1219L14.3751 39.9619L27.2151 35.4139M16.7751 17.1619H16.7871M38.3751 23.1619H38.3871M29.9751 15.9619H29.9871M38.3751 37.5619H38.3871M38.3751 15.9619L35.6871 16.8619C34.922 17.1168 34.2691 17.6295 33.8401 18.3124C33.4111 18.9953 33.2326 19.806 33.3351 20.6059C33.4551 21.6379 32.6511 22.5619 31.5951 22.5619H31.1391C30.1071 22.5619 29.2191 23.2819 29.0271 24.2899L28.7751 25.5619M38.3751 29.1619L37.3911 28.7659C36.3591 28.3579 35.2071 29.0059 35.0151 30.0979C34.8831 30.9379 34.1511 31.5619 33.2991 31.5619H32.3751M25.1751 15.9619L25.5711 16.9459C25.9791 17.9779 25.3311 19.1299 24.2391 19.3219C23.3991 19.4419 22.7751 20.1859 22.7751 21.0379V21.9619" stroke="white" stroke-width="2" stroke-linecap="round" stroke-linejoin="round"/>
<path d="M25.1751 29.162C27.4911 31.478 28.5711 34.166 27.5751 35.162C26.5791 36.158 23.8911 35.078 21.5751 32.762C19.2591 30.446 18.1791 27.758 19.1751 26.762C20.1711 25.766 22.8591 26.846 25.1751 29.162Z" stroke="white" stroke-width="2" stroke-linecap="round" stroke-linejoin="round"/>
</svg>
