<svg width="102" height="55" viewBox="0 0 102 55" fill="none" xmlns="http://www.w3.org/2000/svg">
<path d="M101.233 27.5942C101.233 36.4308 94.07 43.5942 85.2334 43.5942L41.7545 43.5942L41.7545 11.5942L85.2334 11.5942C94.0699 11.5942 101.233 18.7577 101.233 27.5942Z" fill="#98A9FF"/>
<path d="M72.8775 33.0942V29.9982H66.2895V28.5402L72.8415 19.6842H74.5335V28.5402H76.2795V29.9982H74.5335V33.0942H72.8775ZM67.6215 29.1702L67.3695 28.5402H72.8775V21.1602L73.3995 21.3042L67.6215 29.1702Z" fill="white"/>
<circle cx="27.1501" cy="27.5942" r="27" fill="#0029FF"/>
<path d="M35.2078 35.5498C37.4169 35.5498 39.2078 33.7589 39.2078 31.5498C39.2078 29.3407 37.4169 27.5498 35.2078 27.5498C32.9986 27.5498 31.2078 29.3407 31.2078 31.5498C31.2078 33.7589 32.9986 35.5498 35.2078 35.5498Z" stroke="white" stroke-width="2" stroke-linecap="round" stroke-linejoin="round"/>
<path d="M23.2078 26.2165C26.1534 26.2165 28.5412 23.8287 28.5412 20.8831C28.5412 17.9376 26.1534 15.5498 23.2078 15.5498C20.2623 15.5498 17.8745 17.9376 17.8745 20.8831C17.8745 23.8287 20.2623 26.2165 23.2078 26.2165Z" stroke="white" stroke-width="2" stroke-linecap="round" stroke-linejoin="round"/>
<path d="M24.5412 31.5495H19.2078C17.7934 31.5495 16.4368 32.1114 15.4366 33.1116C14.4364 34.1118 13.8745 35.4684 13.8745 36.8829V39.5495M40.1412 33.4162L38.9412 33.0162M31.4745 30.0829L30.2745 29.6829M33.3412 36.4829L33.7412 35.2829M36.6745 27.8162L37.0745 26.6162M37.3412 36.4829L36.8078 35.1495M33.6078 27.9495L33.0745 26.6162M30.2745 33.6829L31.6078 33.1495M38.8078 29.9495L40.1412 29.4162" stroke="white" stroke-width="2" stroke-linecap="round" stroke-linejoin="round"/>
</svg>
