<svg width="25" height="24" viewBox="0 0 25 24" fill="none" xmlns="http://www.w3.org/2000/svg">
<g clip-path="url(#clip0_113_7)">
<path d="M22.1241 12C22.1241 13.9778 21.5376 15.9112 20.4388 17.5557C19.34 19.2002 17.7782 20.4819 15.9509 21.2388C14.1237 21.9957 12.113 22.1937 10.1732 21.8079C8.23338 21.422 6.45155 20.4696 5.05302 19.0711C3.6545 17.6725 2.70209 15.8907 2.31624 13.9509C1.93038 12.0111 2.12842 10.0004 2.88529 8.17317C3.64217 6.3459 4.9239 4.78412 6.56839 3.6853C8.21288 2.58649 10.1463 2 12.1241 2M22.1241 2L12.1241 12M22.1241 2H16.1241M22.1241 2V8" stroke="#0029FF" stroke-width="3" stroke-linecap="round" stroke-linejoin="round"/>
</g>
<defs>
<clipPath id="clip0_113_7">
<rect width="24" height="24" fill="white" transform="translate(0.124084)"/>
</clipPath>
</defs>
</svg>
