<svg width="102" height="55" viewBox="0 0 102 55" fill="none" xmlns="http://www.w3.org/2000/svg">
<path d="M101.233 27.5942C101.233 36.4308 94.07 43.5942 85.2334 43.5942L41.7545 43.5942L41.7545 11.5942L85.2334 11.5942C94.0699 11.5942 101.233 18.7577 101.233 27.5942Z" fill="#98A9FF"/>
<path d="M71.2996 33.3102C70.5916 33.3102 69.9316 33.1842 69.3196 32.9322C68.7076 32.6802 68.1796 32.3262 67.7356 31.8702C67.2916 31.4022 66.9616 30.8502 66.7456 30.2142L68.2396 29.6022C68.4916 30.2742 68.8876 30.7962 69.4276 31.1682C69.9676 31.5402 70.5916 31.7262 71.2996 31.7262C71.8516 31.7262 72.3436 31.6182 72.7756 31.4022C73.2076 31.1862 73.5436 30.8742 73.7836 30.4662C74.0356 30.0582 74.1616 29.5662 74.1616 28.9902C74.1616 28.4022 74.0356 27.9102 73.7836 27.5142C73.5436 27.1062 73.2076 26.7942 72.7756 26.5782C72.3436 26.3622 71.8456 26.2542 71.2816 26.2542C71.1016 26.2542 70.9036 26.2662 70.6876 26.2902C70.4836 26.3142 70.3096 26.3502 70.1656 26.3982L69.7876 25.5882L73.3696 21.2142H67.4296V19.6842H75.3676V21.1602L71.9476 25.3722L71.8396 24.9042C72.6436 24.9282 73.3516 25.1142 73.9636 25.4622C74.5756 25.8102 75.0556 26.2842 75.4036 26.8842C75.7516 27.4722 75.9256 28.1622 75.9256 28.9542C75.9256 29.7702 75.7276 30.5082 75.3316 31.1682C74.9356 31.8282 74.3896 32.3502 73.6936 32.7342C72.9976 33.1182 72.1996 33.3102 71.2996 33.3102Z" fill="white"/>
<circle cx="27.1501" cy="27.5942" r="27" fill="#0029FF"/>
<path d="M27.7157 19.3368C27.7171 18.857 27.6226 18.3817 27.4376 17.9389C27.2526 17.4961 26.981 17.0948 26.6387 16.7586C26.2963 16.4223 25.8902 16.1579 25.4442 15.9809C24.9982 15.8039 24.5213 15.7178 24.0415 15.7278C23.5618 15.7378 23.0889 15.8437 22.6506 16.0391C22.2124 16.2345 21.8176 16.5157 21.4896 16.8659C21.1616 17.2161 20.9069 17.6284 20.7405 18.0785C20.5742 18.5286 20.4995 19.0074 20.5209 19.4868C19.8157 19.6681 19.1611 20.0075 18.6065 20.4793C18.0519 20.9512 17.6119 21.543 17.3199 22.21C17.0279 22.877 16.8915 23.6017 16.921 24.3293C16.9506 25.0568 17.1453 25.7681 17.4904 26.4092C16.8836 26.9022 16.4064 27.536 16.1004 28.2555C15.7943 28.975 15.6687 29.7584 15.7345 30.5375C15.8002 31.3166 16.0553 32.0678 16.4776 32.7258C16.8999 33.3838 17.4766 33.9287 18.1575 34.313C18.0734 34.9635 18.1236 35.6244 18.3049 36.2548C18.4862 36.8852 18.7949 37.4717 19.2118 37.9781C19.6287 38.4845 20.145 38.9001 20.7288 39.1992C21.3126 39.4983 21.9515 39.6745 22.606 39.717C23.2606 39.7595 23.9169 39.6673 24.5345 39.4462C25.152 39.2251 25.7177 38.8797 26.1966 38.4314C26.6754 37.9831 27.0573 37.4414 27.3185 36.8397C27.5798 36.2381 27.715 35.5892 27.7157 34.9333V19.3368Z" stroke="white" stroke-width="2" stroke-linecap="round" stroke-linejoin="round"/>
<path d="M24.1165 28.9348C25.1237 28.5804 26.0033 27.9354 26.6439 27.0812C27.2846 26.227 27.6576 25.202 27.7157 24.1359M20.5209 19.4869C20.5446 20.0673 20.7085 20.6332 20.9984 21.1365M17.4904 26.4105C17.7099 26.2318 17.9448 26.0728 18.1923 25.9354M20.5173 34.9334C19.6905 34.9338 18.8776 34.7205 18.1575 34.3143M27.7157 28.9348H32.5146M27.7157 34.9334H34.914C35.5504 34.9334 36.1607 35.1862 36.6107 35.6362C37.0607 36.0862 37.3135 36.6965 37.3135 37.3328V38.5326M27.7157 22.9361H37.3135M32.5146 22.9361V19.337C32.5146 18.7006 32.7674 18.0903 33.2174 17.6403C33.6674 17.1903 34.2777 16.9375 34.914 16.9375" stroke="white" stroke-width="2" stroke-linecap="round" stroke-linejoin="round"/>
<path d="M32.5146 29.5347C32.8459 29.5347 33.1145 29.2661 33.1145 28.9348C33.1145 28.6035 32.8459 28.335 32.5146 28.335C32.1833 28.335 31.9147 28.6035 31.9147 28.9348C31.9147 29.2661 32.1833 29.5347 32.5146 29.5347Z" stroke="white" stroke-width="2" stroke-linecap="round" stroke-linejoin="round"/>
<path d="M34.9141 17.5371C35.2454 17.5371 35.5139 17.2686 35.5139 16.9373C35.5139 16.606 35.2454 16.3374 34.9141 16.3374C34.5828 16.3374 34.3142 16.606 34.3142 16.9373C34.3142 17.2686 34.5828 17.5371 34.9141 17.5371Z" stroke="white" stroke-width="2" stroke-linecap="round" stroke-linejoin="round"/>
<path d="M37.3135 39.1323C37.6448 39.1323 37.9133 38.8638 37.9133 38.5325C37.9133 38.2012 37.6448 37.9326 37.3135 37.9326C36.9822 37.9326 36.7136 38.2012 36.7136 38.5325C36.7136 38.8638 36.9822 39.1323 37.3135 39.1323Z" stroke="white" stroke-width="2" stroke-linecap="round" stroke-linejoin="round"/>
<path d="M37.3135 23.5362C37.6448 23.5362 37.9133 23.2676 37.9133 22.9363C37.9133 22.605 37.6448 22.3364 37.3135 22.3364C36.9822 22.3364 36.7136 22.605 36.7136 22.9363C36.7136 23.2676 36.9822 23.5362 37.3135 23.5362Z" stroke="white" stroke-width="2" stroke-linecap="round" stroke-linejoin="round"/>
</svg>
