<svg width="28" height="28" viewBox="0 0 28 28" fill="none" xmlns="http://www.w3.org/2000/svg">
<path d="M4.64457 10.3258C4.4694 9.53675 4.4963 8.71626 4.72277 7.94039C4.94923 7.16452 5.36793 6.45838 5.94004 5.88747C6.51216 5.31655 7.21916 4.89933 7.99551 4.67449C8.77185 4.44965 9.5924 4.42447 10.3811 4.60129C10.8152 3.92239 11.4132 3.36369 12.12 2.97669C12.8268 2.58969 13.6196 2.38684 14.4254 2.38684C15.2312 2.38684 16.0241 2.58969 16.7309 2.97669C17.4377 3.36369 18.0357 3.92239 18.4698 4.60129C19.2596 4.4237 20.0816 4.44877 20.8592 4.67415C21.6368 4.89954 22.3447 5.31792 22.9172 5.89039C23.4896 6.46285 23.908 7.1708 24.1334 7.94838C24.3588 8.72596 24.3838 9.54792 24.2063 10.3378C24.8852 10.7719 25.4439 11.3699 25.8309 12.0767C26.2179 12.7835 26.4207 13.5763 26.4207 14.3821C26.4207 15.1879 26.2179 15.9808 25.8309 16.6876C25.4439 17.3944 24.8852 17.9924 24.2063 18.4265C24.3831 19.2152 24.3579 20.0357 24.1331 20.812C23.9082 21.5884 23.491 22.2954 22.9201 22.8675C22.3492 23.4396 21.643 23.8583 20.8672 24.0848C20.0913 24.3113 19.2708 24.3381 18.4818 24.163C18.0482 24.8445 17.4498 25.4056 16.7418 25.7943C16.0338 26.183 15.2391 26.3868 14.4314 26.3868C13.6237 26.3868 12.8291 26.183 12.1211 25.7943C11.4131 25.4056 10.8146 24.8445 10.3811 24.163C9.5924 24.3398 8.77185 24.3146 7.99551 24.0898C7.21916 23.8649 6.51216 23.4477 5.94004 22.8768C5.36793 22.3059 4.94923 21.5998 4.72277 20.8239C4.4963 20.048 4.4694 19.2275 4.64457 18.4385C3.96046 18.0055 3.39696 17.4066 3.00649 16.6974C2.61601 15.9882 2.41125 15.1917 2.41125 14.3821C2.41125 13.5725 2.61601 12.7761 3.00649 12.0669C3.39696 11.3577 3.96046 10.7587 4.64457 10.3258Z" stroke="#0029FF" stroke-width="3" stroke-linecap="round" stroke-linejoin="round"/>
<path d="M10.8251 14.3821L13.2253 16.7823L18.0257 11.9819" stroke="#0029FF" stroke-width="3" stroke-linecap="round" stroke-linejoin="round"/>
</svg>
