<svg width="19" height="20" viewBox="0 0 19 20" fill="none" xmlns="http://www.w3.org/2000/svg">
<path d="M0.174011 10.1587C0.174011 12.1653 1.80068 13.7919 3.80728 13.7919C5.81388 13.7919 7.44055 12.1653 7.44055 10.1587C7.44055 8.15206 5.81388 6.52539 3.80728 6.52539C1.80068 6.52539 0.174011 8.15205 0.174011 10.1587Z" fill="white"/>
<path d="M6.99426 18.5451C6.99426 18.2562 7.10537 17.9651 7.32537 17.7451L14.9697 10.1008L7.44314 2.57424C7.00093 2.13202 7.00093 1.41425 7.44314 0.97204C7.88536 0.529825 8.60312 0.529825 9.04534 0.97204L18.1741 10.1008L8.92756 19.3473C8.48535 19.7895 7.76758 19.7895 7.32537 19.3473C7.10537 19.1251 6.99426 18.8362 6.99426 18.5473L6.99426 18.5451Z" fill="white"/>
</svg>
