<svg width="26" height="26" viewBox="0 0 26 26" fill="none" xmlns="http://www.w3.org/2000/svg">
<circle cx="13.0306" cy="13" r="12.5" fill="#FBA919"/>
<path d="M7.56184 20.0313H18.4993M12.6884 6.17659C12.7221 6.11534 12.7717 6.06427 12.8319 6.0287C12.892 5.99313 12.9607 5.97437 13.0306 5.97437C13.1005 5.97437 13.1691 5.99313 13.2293 6.0287C13.2895 6.06427 13.3391 6.11534 13.3728 6.17659L15.679 10.5547C15.734 10.6561 15.8108 10.744 15.9038 10.8122C15.9968 10.8804 16.1038 10.9272 16.217 10.9491C16.3302 10.9711 16.4469 10.9677 16.5587 10.9392C16.6704 10.9107 16.7745 10.8579 16.8634 10.7844L20.2048 7.9219C20.269 7.86973 20.348 7.83926 20.4306 7.83487C20.5131 7.83048 20.595 7.8524 20.6643 7.89748C20.7336 7.94256 20.7868 8.00847 20.8163 8.08572C20.8457 8.16297 20.8499 8.24758 20.8282 8.32737L18.6142 16.3321C18.569 16.4959 18.4716 16.6405 18.3368 16.7439C18.2021 16.8474 18.0372 16.9041 17.8673 16.9055H8.19465C8.0246 16.9043 7.85958 16.8477 7.72465 16.7442C7.58971 16.6407 7.49223 16.496 7.447 16.3321L5.23371 8.32815C5.21203 8.24836 5.21623 8.16375 5.2457 8.0865C5.27517 8.00925 5.32839 7.94334 5.3977 7.89826C5.46701 7.85319 5.54884 7.83126 5.6314 7.83565C5.71397 7.84004 5.79301 7.87051 5.85715 7.92268L9.19778 10.7852C9.28668 10.8587 9.39075 10.9115 9.50251 10.94C9.61428 10.9685 9.73096 10.9719 9.84418 10.9499C9.95741 10.928 10.0644 10.8812 10.1574 10.813C10.2504 10.7448 10.3272 10.6569 10.3822 10.5555L12.6884 6.17659Z" stroke="#0029FF" stroke-width="1.5" stroke-linecap="round" stroke-linejoin="round"/>
</svg>
