<svg width="25" height="25" viewBox="0 0 25 25" fill="none" xmlns="http://www.w3.org/2000/svg">
<path d="M17.8259 2.65674H7.82593C5.0645 2.65674 2.82593 4.89531 2.82593 7.65674V17.6567C2.82593 20.4182 5.0645 22.6567 7.82593 22.6567H17.8259C20.5874 22.6567 22.8259 20.4182 22.8259 17.6567V7.65674C22.8259 4.89531 20.5874 2.65674 17.8259 2.65674Z" stroke="#1C1C1C" stroke-width="2" stroke-linecap="round" stroke-linejoin="round"/>
<path d="M18.3259 7.15674H18.3359M16.8259 12.0267C16.9494 12.859 16.8072 13.709 16.4197 14.4558C16.0322 15.2026 15.4191 15.8082 14.6676 16.1864C13.916 16.5647 13.0644 16.6963 12.2337 16.5627C11.4031 16.429 10.6357 16.0368 10.0408 15.4419C9.44586 14.847 9.05367 14.0796 8.92001 13.249C8.78634 12.4183 8.91801 11.5666 9.29627 10.8151C9.67453 10.0636 10.2801 9.45048 11.0269 9.06298C11.7737 8.67548 12.6237 8.53333 13.4559 8.65674C14.3049 8.78262 15.0908 9.1782 15.6976 9.78504C16.3045 10.3919 16.7001 11.1778 16.8259 12.0267Z" stroke="#1C1C1C" stroke-width="2" stroke-linecap="round" stroke-linejoin="round"/>
</svg>
