<svg width="25" height="25" viewBox="0 0 25 25" fill="none" xmlns="http://www.w3.org/2000/svg">
<path d="M16.8259 8.65674C18.4172 8.65674 19.9434 9.28888 21.0686 10.4141C22.1938 11.5393 22.8259 13.0654 22.8259 14.6567V21.6567H18.8259V14.6567C18.8259 14.1263 18.6152 13.6176 18.2401 13.2425C17.8651 12.8675 17.3564 12.6567 16.8259 12.6567C16.2955 12.6567 15.7868 12.8675 15.4117 13.2425C15.0366 13.6176 14.8259 14.1263 14.8259 14.6567V21.6567H10.8259V14.6567C10.8259 13.0654 11.4581 11.5393 12.5833 10.4141C13.7085 9.28888 15.2346 8.65674 16.8259 8.65674ZM2.82593 9.65674H6.82593V21.6567H2.82593V9.65674Z" stroke="#1C1C1C" stroke-width="2" stroke-linecap="round" stroke-linejoin="round"/>
<path d="M4.82593 6.65674C5.9305 6.65674 6.82593 5.76131 6.82593 4.65674C6.82593 3.55217 5.9305 2.65674 4.82593 2.65674C3.72136 2.65674 2.82593 3.55217 2.82593 4.65674C2.82593 5.76131 3.72136 6.65674 4.82593 6.65674Z" stroke="#1C1C1C" stroke-width="2" stroke-linecap="round" stroke-linejoin="round"/>
</svg>
