<svg width="22" height="22" viewBox="0 0 22 22" fill="none" xmlns="http://www.w3.org/2000/svg">
<g clip-path="url(#clip0_75_965)">
<path d="M9.79932 12.4097H11.5493C12.0134 12.4097 12.4586 12.2253 12.7868 11.8971C13.1149 11.5689 13.2993 11.1238 13.2993 10.6597C13.2993 10.1955 13.1149 9.75042 12.7868 9.42223C12.4586 9.09404 12.0134 8.90967 11.5493 8.90967H8.92432C8.39932 8.90967 7.96182 9.08467 7.69932 9.43467L2.79932 14.1597" stroke="#1C1C1C" stroke-width="2" stroke-linecap="round" stroke-linejoin="round"/>
<path d="M6.29932 17.6597L7.69932 16.4347C7.96182 16.0847 8.39932 15.9097 8.92432 15.9097H12.4243C13.3868 15.9097 14.2618 15.5597 14.8743 14.8597L18.8993 11.0097C19.237 10.6906 19.434 10.2504 19.4472 9.78603C19.4603 9.32165 19.2884 8.87107 18.9693 8.53341C18.6502 8.19576 18.2101 7.99869 17.7457 7.98556C17.2813 7.97244 16.8307 8.14432 16.4931 8.46341L12.8181 11.8759M1.92432 13.2847L7.17432 18.5347" stroke="#1C1C1C" stroke-width="2" stroke-linecap="round" stroke-linejoin="round"/>
<path d="M17.2368 7.59717C17.8493 6.98467 18.5493 6.19717 18.5493 5.23467C18.6105 4.69998 18.4893 4.1603 18.2054 3.7031C17.9215 3.2459 17.4915 2.89796 16.9852 2.71567C16.4788 2.53338 15.9257 2.52742 15.4155 2.69876C14.9054 2.87009 14.468 3.20869 14.1743 3.65967C13.862 3.24368 13.4245 2.93878 12.9261 2.78973C12.4277 2.64068 11.8947 2.65533 11.4052 2.83154C10.9157 3.00774 10.4957 3.33621 10.2066 3.76873C9.91761 4.20125 9.77485 4.71504 9.79932 5.23467C9.79932 6.28467 10.4993 6.98467 11.1118 7.68467L14.1743 10.6597L17.2368 7.59717Z" stroke="#1C1C1C" stroke-width="2" stroke-linecap="round" stroke-linejoin="round"/>
</g>
<defs>
<clipPath id="clip0_75_965">
<rect width="21" height="21" fill="white" transform="translate(0.174316 0.159668)"/>
</clipPath>
</defs>
</svg>
