<svg width="25" height="25" viewBox="0 0 25 25" fill="none" xmlns="http://www.w3.org/2000/svg">
<path d="M10.8741 9.05981H5.47407C4.47996 9.05981 3.67407 9.8657 3.67407 10.8598V19.8598C3.67407 20.8539 4.47996 21.6598 5.47407 21.6598H10.8741C11.8682 21.6598 12.6741 20.8539 12.6741 19.8598V10.8598C12.6741 9.8657 11.8682 9.05981 10.8741 9.05981Z" stroke="#1C1C1C" stroke-width="2" stroke-linecap="round" stroke-linejoin="round"/>
<path d="M5.474 5.45979C5.474 4.9824 5.66364 4.52456 6.00121 4.187C6.33877 3.84943 6.79661 3.65979 7.274 3.65979H18.074C18.5514 3.65979 19.0092 3.84943 19.3468 4.187C19.6844 4.52456 19.874 4.9824 19.874 5.45979V19.8598C19.874 20.3372 19.6844 20.795 19.3468 21.1326C19.0092 21.4701 18.5514 21.6598 18.074 21.6598H15.914M8.174 18.0598H8.183" stroke="#1C1C1C" stroke-width="2" stroke-linecap="round" stroke-linejoin="round"/>
</svg>
