<svg width="43" height="42" viewBox="0 0 43 42" fill="none" xmlns="http://www.w3.org/2000/svg">
<circle cx="21.8262" cy="21.0093" r="21" fill="#0029FF"/>
<path d="M31.8261 25.9294V28.9294C31.8272 29.2079 31.7702 29.4835 31.6586 29.7387C31.547 29.9939 31.3834 30.223 31.1782 30.4112C30.973 30.5995 30.7307 30.7429 30.4669 30.8321C30.203 30.9213 29.9235 30.9544 29.6461 30.9294C26.569 30.5947 23.6133 29.5432 21.0161 27.8594C18.5999 26.324 16.5514 24.2755 15.0161 21.8594C13.3264 19.2504 12.2747 16.2803 11.9461 13.1894C11.9211 12.9128 11.954 12.6341 12.0426 12.371C12.1312 12.1079 12.2737 11.8661 12.4609 11.661C12.6481 11.4559 12.8759 11.2921 13.1299 11.1799C13.3839 11.0677 13.6584 11.0096 13.9361 11.0094H16.9361C17.4214 11.0046 17.8919 11.1765 18.2599 11.4929C18.6278 11.8094 18.8682 12.2488 18.9361 12.7294C19.0624 13.6895 19.2972 14.6322 19.6361 15.5394C19.7706 15.8973 19.7998 16.2863 19.72 16.6603C19.6403 17.0342 19.455 17.3775 19.1861 17.6494L17.9161 18.9194C19.3397 21.4229 21.4126 23.4958 23.9161 24.9194L25.1861 23.6494C25.458 23.3805 25.8013 23.1952 26.1752 23.1155C26.5492 23.0357 26.9382 23.0648 27.2961 23.1994C28.2033 23.5383 29.146 23.7731 30.1061 23.8994C30.5919 23.9679 31.0355 24.2126 31.3526 24.5869C31.6698 24.9612 31.8383 25.439 31.8261 25.9294Z" stroke="white" stroke-width="2" stroke-linecap="round" stroke-linejoin="round"/>
</svg>
