<svg width="25" height="25" viewBox="0 0 25 25" fill="none" xmlns="http://www.w3.org/2000/svg">
<path d="M8.52613 20.2657C10.3335 21.1929 12.4126 21.444 14.3888 20.9738C16.3649 20.5037 18.1082 19.3432 19.3044 17.7015C20.5006 16.0597 21.0711 14.0448 20.9131 12.0196C20.7551 9.99444 19.879 8.0923 18.4427 6.65595C17.0063 5.2196 15.1042 4.34349 13.079 4.1855C11.0539 4.02751 9.03889 4.59803 7.39716 5.79425C5.75543 6.99047 4.59494 8.73373 4.12479 10.7099C3.65465 12.686 3.90577 14.7651 4.83292 16.5725L2.93896 22.1597L8.52613 20.2657Z" stroke="#1C1C1C" stroke-width="2" stroke-linecap="round" stroke-linejoin="round"/>
<path d="M16.0072 10.0383C15.5646 9.60454 14.9697 9.36157 14.35 9.36157C13.7303 9.36157 13.1353 9.60454 12.6928 10.0383L12.4087 10.4171L12.0772 10.133C11.8601 9.89804 11.5962 9.71112 11.3026 9.58429C11.0089 9.45745 10.6919 9.39351 10.372 9.39659C10.0521 9.39966 9.73635 9.46968 9.44514 9.60214C9.15394 9.73459 8.89369 9.92655 8.68115 10.1657C8.46861 10.4048 8.30849 10.6857 8.21109 10.9904C8.11369 11.2952 8.08117 11.6169 8.11562 11.935C8.15008 12.253 8.25074 12.5603 8.41113 12.8371C8.57152 13.1139 8.78809 13.3541 9.0469 13.5421L12.456 16.8566L15.8651 13.5421C17.0015 12.4058 16.9068 10.9853 16.0545 10.0383" stroke="#1C1C1C" stroke-width="2" stroke-linecap="round" stroke-linejoin="round"/>
</svg>
