<svg width="23" height="25" viewBox="0 0 23 25" fill="none" xmlns="http://www.w3.org/2000/svg">
<path d="M0.204823 12.5315C0.204823 14.9841 2.19301 16.9723 4.64556 16.9723C7.09812 16.9723 9.0863 14.9841 9.0863 12.5316C9.0863 10.079 7.09812 8.09082 4.64556 8.09082C2.19301 8.09081 0.204823 10.079 0.204823 12.5315Z" fill="#0029FF"/>
<path d="M8.54063 22.782C8.54063 22.4289 8.67643 22.0731 8.94532 21.8042L18.2885 12.461L9.08927 3.26177C8.54878 2.72127 8.54878 1.84398 9.08927 1.30349C9.62977 0.762998 10.507 0.762999 11.0475 1.30349L22.2051 12.461L10.9036 23.7625C10.3631 24.303 9.48581 24.303 8.94532 23.7625C8.67643 23.4909 8.54063 23.1378 8.54063 22.7847L8.54063 22.782Z" fill="#0029FF"/>
</svg>
